<svg version="1.2" xmlns="http://www.w3.org/2000/svg" viewBox="0 0 1024 1024" width="1024" height="1024">
	<style>
		.s0 { fill: #3fa9f5 } 
		.s1 { fill: #d4145a } 
	</style>
	<g id="Layer 1">
		<g id="&lt;Group&gt;">
			<path id="Liser" class="s0" aria-label="Liser"  d="m476.4 604h-24.3v-147.9h24.3zm69.7 0h-77.3v-22.2h77.3zm43.2 0h-23.2v-101.5h23.2zm-11.6-120q-5.9 0-9.9-4-3.8-4-3.8-9.9 0-6 3.8-10 4-4 9.9-4 6.2 0 10 4 3.8 4 3.8 10 0 5.9-3.8 9.9-3.8 4-10 4zm70.4 122.2q-8.5 0-16.3-2.2-7.8-2.3-14.4-6.3-6.5-4.2-11.4-10.1l14.8-14.8q5.3 6.1 12.1 9.3 6.9 2.9 15.6 2.9 7.8 0 11.8-2.3 4-2.3 4-6.8 0-4.6-3.8-7.2-3.8-2.5-9.9-4.2-5.9-1.9-12.7-3.8-6.5-1.9-12.7-5.1-5.9-3.3-9.7-9-3.8-5.7-3.8-14.8 0-9.8 4.5-16.7 4.6-7 12.9-10.8 8.4-3.8 20-3.8 12.3 0 21.6 4.4 9.5 4.3 15.8 12.9l-14.8 14.8q-4.4-5.5-10.1-8.2-5.7-2.8-13.1-2.8-7 0-10.8 2.1-3.8 2.1-3.8 6.2 0 4.2 3.8 6.5 3.8 2.3 9.7 4 6.2 1.7 12.7 3.8 6.8 1.9 12.7 5.5 6.1 3.4 9.9 9.3 3.8 5.7 3.8 15 0 14.8-10.3 23.5-10.4 8.7-28.1 8.7zm104.9 0q-15.2 0-27.5-6.8-12-7-19.2-19-7-12.1-7-27.1 0-15 7-26.8 7-12.1 18.8-19 12.1-7 26.7-7 14.1 0 24.9 6.5 11 6.6 17.1 18 6.3 11.4 6.3 26 0 2.5-0.4 5.3-0.2 2.5-0.8 5.7h-83.3v-19h71.2l-8.6 7.6q-0.5-9.3-3.6-15.7-3.2-6.3-9.1-9.7-5.7-3.4-14.2-3.4-8.8 0-15.4 3.8-6.6 3.8-10.1 10.8-3.6 6.8-3.6 16.3 0 9.5 3.8 16.7 3.8 7.2 10.7 11.2 7 3.8 16.1 3.8 7.8 0 14.4-2.8 6.7-2.7 11.4-8l14.8 15q-7.4 8.7-18 13.1-10.5 4.5-22.4 4.5zm89.1-2.2h-23.2v-101.4h23.2zm0-56.4l-8-4q0-19.3 8.5-31.1 8.6-12.1 26-12.1 7.6 0 13.7 2.8 6.1 2.7 11.4 8.9l-15.2 15.6q-2.8-2.9-6.1-4.2-3.4-1.3-7.9-1.3-9.7 0-16 6.1-6.4 6.2-6.4 19.3z"/>
			<path id="&lt;Path&gt;" class="s1" d="m345.84 408.78v123.92c0 2.61-6.11 7.66-8.3 9.22-26.72 19.06-60.33 34.05-88.06 52.11-8.67 1.89-15.01-2.58-15.84-11.37-3.21-34.11 2.51-73.16-0.01-107.8 0.64-8.1 8.47-14.15 16.45-11.1l78.24 46.61v-160.7c0-1.93 3.29-3.4 5.03-3.73 12.12-2.3 11.16 4.39 16.51 11.97 22.29 31.56 69.31 30.54 65.2 82.82-0.44 5.54-5.93 26.35-9.6 29.82-5.79 5.51-3.62-3.98-3.54-6.17 1.37-37.3-25.1-47.09-56.08-55.6z"/>
			<path id="&lt;Path&gt;" class="s0" d="m311.67 379.88v19.27c-27.23-6.08-55.56-4.82-81.49 5.7-33.98 13.81-61.77 42.66-74.51 77.04-30.49 82.29 28.61 170.69 114.76 177.41l-0.82 18.35c-70.47-2.58-131.68-61.5-140.11-131.04-12.46-102.85 80.48-189.27 182.17-166.73z"/>
			<path id="&lt;Path&gt;" class="s0" d="m415.9 590.14c-19.34 43.14-60.28 76.1-106.83 85.35-6.68 1.32-13.5 1.78-20.18 3.03l-0.52-18.45c6.72-1.91 13.71-2.44 20.51-4.04 40.22-9.46 73.96-37.84 90.43-75.59z"/>
			<path id="&lt;Path&gt;" class="s1" d="m436.99 554.15l8.49-45.35c1.73-5.55 5.23-10.67 11.23-6.32 4.42 3.2 6.32 19.05 9.31 24.41 1.62 1.04 17.1-0.63 21.16 0.31 6.29 1.45 4.55 9.31-1.62 10.27-3.95 0.61-19.5 0.56-23.23-0.33-7.08-1.68-5.27-10.45-9.57-14.51l-9.9 57.12c-2.53 8.93-10.7 7.21-12.15-1.37l-11.27-70.63-8.8 46.8c-1.29 5.35-5.4 9.84-10.69 5.76-4.42-3.41-8.09-27-10.3-33.3-3.14 2.74-2 6.76-6.2 9.12-5.02 2.83-29.38 3.2-23.42-6.74 2.67-4.44 13.51-1.48 18.14-2.48 2.93-6.71 4.51-24.22 15.04-17.9l10.46 30.26c4.18-18.15 4.99-39.39 9.91-57.1 2.32-8.35 8.04-10.27 11.6-1.6z"/>
		</g>
	</g>
</svg>