<?xml version="1.0" encoding="UTF-8"?>
<svg id="Layer_2" data-name="Layer 2" xmlns="http://www.w3.org/2000/svg" viewBox="0 0 362.75 333.04">
  <defs>
    <style>
      .cls-1 {
        fill: #fff;
      }
    </style>
  </defs>
  <g id="Layer_1-2" data-name="Layer 1">
    <path class="cls-1" d="M217.46,63.3v123.92c0,2.61-6.12,7.66-8.3,9.22-26.72,19.06-60.33,34.05-88.06,52.11-8.67,1.89-15.01-2.58-15.84-11.37-3.21-34.11,2.51-73.16-.01-107.8.64-8.1,8.47-14.15,16.45-11.1l78.23,46.61V4.19c0-1.93,3.29-3.4,5.03-3.73,12.13-2.31,11.16,4.38,16.52,11.97,22.29,31.56,69.3,30.54,65.19,82.82-.44,5.54-5.93,26.34-9.59,29.82-5.8,5.5-3.62-3.99-3.54-6.17,1.37-37.31-25.1-47.09-56.08-55.6Z"/>
    <path class="cls-1" d="M183.29,34.4v19.27c-27.23-6.08-55.56-4.82-81.48,5.7-33.99,13.8-61.77,42.66-74.51,77.04-30.49,82.29,28.6,170.69,114.76,177.4l-.83,18.35C70.76,329.59,9.55,270.66,1.13,201.13-11.33,98.28,81.6,11.86,183.29,34.4Z"/>
    <path class="cls-1" d="M287.52,244.66c-19.34,43.14-60.28,76.1-106.83,85.35-6.68,1.33-13.5,1.78-20.18,3.03l-.52-18.45c6.72-1.91,13.71-2.44,20.51-4.04,40.22-9.46,73.96-37.84,90.43-75.59l16.59,9.71Z"/>
    <path class="cls-1" d="M308.61,208.67l8.49-45.36c1.73-5.55,5.23-10.67,11.23-6.32,4.42,3.2,6.31,19.05,9.3,24.41,1.62,1.04,17.1-.63,21.16.31,6.3,1.45,4.55,9.31-1.62,10.27-3.95.62-19.5.56-23.23-.33-7.08-1.68-5.28-10.46-9.57-14.51l-9.9,57.11c-2.54,8.94-10.7,7.22-12.15-1.37l-11.27-70.63-8.8,46.8c-1.29,5.35-5.4,9.84-10.69,5.76-4.42-3.41-8.09-27-10.3-33.3-3.14,2.74-2,6.76-6.2,9.12-5.02,2.82-29.38,3.19-23.42-6.74,2.66-4.43,13.5-1.48,18.13-2.48,2.94-6.71,4.51-24.22,15.04-17.89l10.46,30.25c4.18-18.15,4.99-39.38,9.91-57.1,2.32-8.35,8.04-10.27,11.6-1.6l11.81,73.59Z"/>
  </g>
</svg>